<?xml version="1.0" standalone="no"?>
<!DOCTYPE svg PUBLIC "-//W3C//DTD SVG 20010904//EN"
 "http://www.w3.org/TR/2001/REC-SVG-20010904/DTD/svg10.dtd">
<svg version="1.0" xmlns="http://www.w3.org/2000/svg"
 width="200.000000pt" height="200.000000pt" viewBox="0 0 200.000000 200.000000"
 preserveAspectRatio="xMidYMid meet">
<metadata>
Created by potrace 1.11, written by Peter Selinger 2001-2013
</metadata>
<g transform="translate(0.000000,200.000000) scale(0.100000,-0.100000)"
fill="#000000" stroke="none">
<path d="M0 1000 l0 -1000 1000 0 1000 0 0 1000 0 1000 -1000 0 -1000 0 0
-1000z m903 358 c12 -6 27 -18 34 -27 13 -17 18 -127 7 -156 -4 -9 -41 -39
-83 -67 -152 -103 -262 -190 -272 -216 -8 -20 -6 -36 5 -64 13 -35 13 -37 -2
-29 -21 12 -56 50 -70 77 -32 61 -25 211 12 266 25 38 300 228 328 228 11 0
29 -5 41 -12z m278 -3 c34 -18 36 -11 -41 -118 -30 -42 -59 -75 -65 -74 -5 2
-14 23 -19 48 -12 61 6 124 42 143 35 19 46 19 83 1z m298 -228 c39 -81 25
-232 -27 -290 -9 -11 -78 -60 -152 -110 -153 -103 -185 -112 -226 -63 -19 22
-24 38 -24 86 0 32 3 66 6 75 4 9 48 44 98 77 267 179 288 203 250 292 -16 41
53 -22 75 -67z m-531 -385 c-3 -48 -9 -68 -26 -84 -25 -26 -78 -29 -109 -7
-21 14 -20 16 45 103 61 82 67 87 80 70 9 -13 12 -39 10 -82z"/>
</g>
</svg>
