<?xml version="1.0" encoding="utf-8"?>
<!-- Generator: Adobe Illustrator 19.2.1, SVG Export Plug-In . SVG Version: 6.00 Build 0)  -->
<svg version="1.1" id="layer" xmlns="http://www.w3.org/2000/svg" xmlns:xlink="http://www.w3.org/1999/xlink" x="0px" y="0px"
	 viewBox="0 0 652 652" style="enable-background:new 0 0 652 652;" xml:space="preserve">
<style type="text/css">
	.st0{fill:#0056D2;}
</style>
<path class="st0" d="M104.2,321.2c0-23.1,19-41.8,42.8-41.8c24,0,43,18.7,43,41.8c0,22.9-19,42-43,42
	C123.2,363.1,104.2,344.1,104.2,321.2L104.2,321.2z M169.4,321.2c0-11.6-10-21.7-22.4-21.7c-12.2,0-22.3,10.2-22.3,21.7
	c0,11.7,10,21.9,22.3,21.9C159.4,343.1,169.4,332.9,169.4,321.2L169.4,321.2z M535.9,321.9c0-25.3,20.6-42.5,39.3-42.5
	c12.7,0,20,3.9,25,11.4l2-9.9h19.1v80.7h-19.1l-2.5-8.3c-5.6,6.1-12.6,9.9-24.5,9.9C556.8,363.1,535.9,347,535.9,321.9L535.9,321.9z
	 M601.2,321.7c0-12.2-10.1-22.2-22.3-22.2c-12.3,0-22.3,10.1-22.3,22.3v0.1c0,11.2,10,21.2,22.3,21.2
	C591.1,343.1,601.2,333.1,601.2,321.7L601.2,321.7z M512.4,290.3v-9.3h-20.9v80.7h20.9v-43.5c0-13.1,6.5-19.9,17.7-19.9
	c0.7,0,1.4,0.1,2.1,0.1l3.9-19.5C525.2,278.9,517.3,282.7,512.4,290.3L512.4,290.3z M302.5,290.3v-9.3l-20.9,0l0.2,80.7l20.9,0
	l-0.1-43.5c0-13.1,6.4-19.9,17.6-19.9c0.7,0,1.4,0,2.1,0.1l3.9-19.5C315.2,278.9,307.3,282.7,302.5,290.3L302.5,290.3z M197.2,330.4
	v-49.4h20.9v46.9c0,10.4,5.8,16.5,15.8,16.5c11.2,0,17.7-6.8,17.7-19.9v-43.5h20.9v80.7h-20.9v-9.3c-4.9,7.6-12.9,11.4-24,11.4
	C208.9,363.7,197.2,350.1,197.2,330.4L197.2,330.4z M400.7,321.3c0-22.6,16.2-41.9,41.9-41.9c23.8,0,40.6,19.1,40.5,41.6
	c0,2.2-0.2,4.4-0.5,6.6l-61.5-0.1c2.4,9.7,10.3,16.7,22.4,16.7c7.3,0,15.1-2.7,19.9-8.8l14.3,11.4c-7.3,10.4-20.3,16.4-34,16.4
	C419.3,363.1,400.6,344.9,400.7,321.3L400.7,321.3z M462,312.9c-1.2-8.2-9.7-14.5-19.7-14.5c-9.7,0-17.5,5.7-20.6,14.4L462,312.9z
	 M326.3,344l18.6-9.7c3.1,6.7,9.2,10.6,17.9,10.6c8,0,11.1-2.6,11.1-6.1c0-13-44-5.1-44-34.8c0-16.4,14.3-25.1,32.1-25.1
	c13.5,0,25.4,6,31.9,17.1l-18.4,9.7c-2.7-5.5-7.8-8.5-14.3-8.5c-6.3,0-9.4,2.2-9.4,6c0,12.6,44,4.6,44,34.8
	c0,15.7-12.8,25.2-33.4,25.2C344.7,363.1,332.4,357.3,326.3,344L326.3,344z M21.2,321.2c0-23.3,19-42,42.8-42
	c14.5-0.1,28.1,7.1,36.2,19.2l-17.8,10.3c-4.2-6-11-9.5-18.3-9.5c-12.2,0-22.3,10.2-22.3,21.9c0,11.7,10,21.9,22.3,21.9
	c7.7,0,14.8-3.9,18.9-10.4l17.7,10.5c-8,12.4-21.8,20-36.5,19.9C40.2,363.1,21.2,344.1,21.2,321.2L21.2,321.2z M21.2,321.2"/>
</svg>
